<svg xmlns="http://www.w3.org/2000/svg" version="1.1" xmlns:xlink="http://www.w3.org/1999/xlink" xmlns:svgjs="http://svgjs.dev/svgjs" width="1500" height="1693" viewBox="0 0 1500 1693"><g transform="matrix(1,0,0,1,0.4252857155059928,2.2737367544323206e-13)"><svg viewBox="0 0 248 280" data-background-color="#010536" preserveAspectRatio="xMidYMid meet" height="1693" width="1500" xmlns="http://www.w3.org/2000/svg" xmlns:xlink="http://www.w3.org/1999/xlink"><g id="tight-bounds" transform="matrix(1,0,0,1,-0.07031390496365475,-2.842170943040401e-14)"><svg viewBox="0 0 248.14062780992728 280" height="280" width="248.14062780992728"><g><svg viewBox="0 0 278.2696 313.99730341491005" height="280" width="248.14062780992728"><g><svg viewBox="0 0 278.2696 313.99730341491005" height="313.99730341491005" width="278.2696"><g id="textblocktransform"><svg viewBox="0 0 278.2696 313.99730341491005" height="313.99730341491005" width="278.2696" id="textblock"><g><svg viewBox="0 0 278.2696 278.2696" height="278.2696" width="278.2696"><g transform="matrix(1,0,0,1,89.94321971048298,95.84620934522502)"><svg viewBox="0 0 98.38316057903407 86.57718130954999" height="86.57718130954999" width="98.38316057903407"><g id="icon-0"><svg xmlns="http://www.w3.org/2000/svg" xmlns:xlink="http://www.w3.org/1999/xlink" version="1.1" x="0" y="0" viewBox="0 6 100 88" enable-background="new 0 0 100 100" xml:space="preserve" height="86.57718130954999" width="98.38316057903407" class="icon-xg-0" data-fill-palette-color="accent" id="xg-0"><g fill="#ffff00" data-fill-palette-color="accent"><path d="M41.751 59.098v6.119L20 55.789v-5.232l21.751-9.427v6.162l-15.156 5.839L41.751 59.098z" fill="#ffff00" data-fill-palette-color="accent"></path><path d="M55.2 41l-6.055 24.93c-0.201 0.821-0.377 1.471-0.529 1.946-0.151 0.476-0.382 0.849-0.691 1.112-0.31 0.268-0.761 0.4-1.352 0.4-1.47 0-2.206-0.636-2.206-1.902 0-0.332 0.145-1.16 0.433-2.486l6.033-24.93c0.317-1.326 0.619-2.234 0.907-2.724 0.289-0.49 0.851-0.735 1.688-0.735 0.721 0 1.271 0.173 1.653 0.519 0.382 0.346 0.573 0.822 0.573 1.427C55.654 39.004 55.502 39.818 55.2 41z" fill="#ffff00" data-fill-palette-color="accent"></path><path d="M80 55.789L58.249 65.26v-6.119l15.2-5.967-15.2-5.882v-6.076L80 50.6V55.789z" fill="#ffff00" data-fill-palette-color="accent"></path></g><path d="M94 6H6c-3.313 0-6 2.687-6 6v76c0 3.313 2.687 6 6 6h88c3.314 0 6-2.688 6-6V12C100 8.686 97.314 6 94 6zM79 10c2.205 0 4 1.794 4 4s-1.795 4-4 4-4-1.794-4-4S76.795 10 79 10zM68 10c2.205 0 4 1.794 4 4s-1.795 4-4 4-4-1.794-4-4S65.795 10 68 10zM94 88H6V22h88V88zM90 18c-2.205 0-4-1.794-4-4s1.795-4 4-4 4 1.794 4 4S92.205 18 90 18z" fill="#ffff00" data-fill-palette-color="accent"></path></svg></g></svg></g><g id="text-0"><path d="M29.581 104.831v0c-0.647 1.977-1.758 3.291-3.334 3.941-1.569 0.652-3.508 0.6-5.817-0.156v0c-2.252-0.737-4.135-1.844-5.649-3.321-1.513-1.484-2.538-3.164-3.075-5.041-0.535-1.884-0.478-3.814 0.169-5.792v0c0.344-1.052 0.785-1.936 1.322-2.649 0.537-0.714 1.246-0.927 2.126-0.639v0c0.37 0.121 0.722 0.307 1.057 0.558 0.337 0.244 0.599 0.51 0.788 0.797 0.184 0.279 0.243 0.521 0.176 0.725v0c-0.031 0.096-0.108 0.222-0.231 0.38-0.12 0.151-0.236 0.279-0.348 0.384v0c-0.268 0.216-0.578 0.482-0.928 0.798-0.357 0.314-0.698 0.676-1.022 1.085-0.331 0.407-0.578 0.86-0.741 1.357v0c-0.255 0.778-0.119 1.592 0.408 2.442 0.525 0.857 1.332 1.658 2.423 2.403 1.084 0.743 2.328 1.344 3.732 1.804v0c1.856 0.607 3.186 0.728 3.99 0.363 0.796-0.361 1.37-1.08 1.723-2.159v0c0.296-0.906 0.391-1.722 0.283-2.449-0.108-0.727-0.268-1.447-0.48-2.159v0c-0.08-0.273-0.118-0.48-0.115-0.62 0.001-0.134 0.019-0.252 0.052-0.354v0c0.042-0.128 0.125-0.21 0.251-0.246 0.127-0.043 0.251-0.045 0.372-0.005v0c0.453 0.148 0.914 0.507 1.384 1.077 0.464 0.568 0.857 1.265 1.18 2.092 0.329 0.828 0.536 1.708 0.62 2.638 0.086 0.925-0.02 1.84-0.316 2.746z" fill="#fbfbf8" data-fill-palette-color="primary"></path><path d="M39.033 83.521v0c-1.135 1.964-2.594 3.155-4.379 3.573-1.775 0.416-3.781-0.022-6.018-1.315v0c-1.482-0.856-2.718-1.896-3.708-3.119-0.985-1.22-1.711-2.531-2.18-3.933-0.472-1.397-0.655-2.804-0.548-4.223 0.103-1.413 0.513-2.738 1.228-3.976v0c1.135-1.964 2.582-3.127 4.342-3.49 1.763-0.369 3.821 0.127 6.174 1.486v0c1.418 0.819 2.614 1.821 3.59 3.004 0.972 1.189 1.694 2.467 2.167 3.834 0.47 1.372 0.66 2.761 0.57 4.165-0.1 1.407-0.513 2.738-1.238 3.994zM36.935 81.216v0c0.5-0.866 0.612-1.797 0.336-2.794-0.273-1.003-0.872-1.992-1.797-2.968-0.93-0.979-2.092-1.872-3.487-2.678v0c-1.482-0.856-2.785-1.311-3.909-1.363-1.13-0.056-1.992 0.43-2.586 1.458v0c-0.487 0.843-0.599 1.774-0.336 2.794 0.263 1.02 0.847 2.028 1.753 3.024 0.905 0.996 2.064 1.902 3.475 2.718v0c1.575 0.91 2.921 1.35 4.038 1.321 1.108-0.026 1.946-0.53 2.513-1.512z" fill="#fbfbf8" data-fill-palette-color="primary"></path><path d="M52.299 64.841v0c-0.98 1.031-2.104 1.371-3.37 1.018-1.271-0.347-2.72-1.293-4.344-2.837v0c-1.396-1.327-2.491-2.742-3.284-4.246-0.793-1.494-1.277-3.001-1.453-4.52-0.181-1.514-0.059-2.963 0.367-4.346 0.416-1.382 1.142-2.618 2.177-3.708v0c0.638-0.671 1.381-1.229 2.229-1.673 0.848-0.453 1.612-0.81 2.294-1.069v0l1.935 3.589c-0.835 0.187-1.645 0.445-2.43 0.774-0.78 0.324-1.46 0.659-2.039 1.006-0.58 0.338-0.988 0.63-1.224 0.878v0c-0.527 0.555-0.745 1.31-0.654 2.267 0.086 0.961 0.462 2.022 1.127 3.183 0.666 1.16 1.599 2.312 2.801 3.453v0c1.109 1.054 2.029 1.771 2.76 2.152 0.727 0.385 1.263 0.395 1.61 0.03v0c0.291-0.306 0.458-1.046 0.499-2.22 0.046-1.178-0.185-2.82-0.695-4.924-0.509-2.104-1.448-4.696-2.817-7.775v0l3.344 1.596c1.329 3.189 2.201 5.925 2.615 8.207 0.409 2.287 0.471 4.175 0.187 5.663-0.29 1.493-0.834 2.66-1.635 3.502zM61.23 55.094l-1.907 2.007c-0.203 0.214-0.496 0.283-0.878 0.207-0.382-0.076-0.782-0.239-1.201-0.489-0.414-0.246-0.765-0.505-1.052-0.778v0c-0.482-0.458-0.95-1.056-1.406-1.794-0.456-0.748-1.035-1.692-1.738-2.833v0l-1.597-2.615-1.71-0.042-2.715-3.178-0.108-0.866-7.322-7.39 2.129-2.24c0.273-0.287 0.619-0.403 1.038-0.347 0.419 0.056 0.838 0.199 1.257 0.431 0.419 0.231 0.782 0.493 1.088 0.784v0c0.19 0.18 0.394 0.393 0.614 0.64 0.22 0.246 0.509 0.595 0.867 1.046 0.353 0.447 0.839 1.07 1.457 1.871v0l5.695 7.218c0.795 1.005 1.622 2.009 2.483 3.013 0.866 1.008 1.723 1.962 2.572 2.861 0.858 0.899 1.67 1.731 2.434 2.494z" fill="#fbfbf8" data-fill-palette-color="primary"></path><path d="M75.315 44.576v0c-1.696 1.11-3.358 1.432-4.986 0.966-1.625-0.46-3.051-1.628-4.279-3.503v0c-1.026-1.567-1.746-3.144-2.16-4.734-0.409-1.593-0.536-3.134-0.381-4.624 0.161-1.493 0.603-2.853 1.324-4.079 0.727-1.23 1.719-2.256 2.977-3.08v0c1.499-0.981 2.857-1.413 4.073-1.295 1.207 0.116 2.202 0.772 2.985 1.968v0c0.794 1.213 1.085 2.534 0.875 3.963-0.217 1.433-0.871 2.964-1.962 4.594-1.091 1.629-2.542 3.353-4.352 5.17v0l-1.73-1.706c1.115-0.955 2.055-1.951 2.819-2.989 0.774-1.036 1.263-2.07 1.47-3.104 0.206-1.033 0.026-1.982-0.541-2.846v0c-0.39-0.595-0.801-0.972-1.233-1.13-0.432-0.158-0.949-0.04-1.549 0.353v0c-0.904 0.592-1.454 1.425-1.649 2.499-0.195 1.074-0.105 2.247 0.27 3.517 0.371 1.265 0.946 2.493 1.725 3.683v0c1.055 1.611 2.011 2.526 2.867 2.743 0.847 0.216 1.756 0.005 2.727-0.63v0c1.016-0.665 1.799-1.406 2.347-2.223 0.554-0.82 0.99-1.587 1.31-2.3v0c0.106-0.23 0.204-0.418 0.292-0.565 0.091-0.156 0.181-0.263 0.271-0.321v0c0.107-0.07 0.223-0.082 0.349-0.037 0.123 0.04 0.221 0.116 0.294 0.229v0c0.261 0.399 0.387 0.978 0.379 1.737-0.008 0.759-0.171 1.608-0.487 2.545-0.32 0.932-0.809 1.857-1.467 2.777-0.657 0.92-1.517 1.727-2.578 2.422z" fill="#fbfbf8" data-fill-palette-color="primary"></path><path d="M112.953 28.242v0c-1.95 0.443-3.553 0.49-4.809 0.142-1.257-0.354-2.003-1.045-2.236-2.073v0c-0.106-0.465-0.135-0.912-0.088-1.342 0.053-0.432 0.221-0.68 0.502-0.744v0c0.105-0.024 0.228-0.024 0.372-0.002 0.136 0.024 0.411 0.113 0.824 0.267v0c0.593 0.216 1.235 0.394 1.928 0.533 0.692 0.139 1.388 0.218 2.087 0.238 0.692 0.015 1.319-0.041 1.882-0.169v0c0.825-0.187 1.378-0.523 1.66-1.007 0.282-0.484 0.348-1.06 0.197-1.727v0c-0.11-0.484-0.349-0.857-0.719-1.117-0.367-0.254-0.922-0.513-1.663-0.778v0l-2.735-1c-1.153-0.412-2.154-0.908-3.001-1.486-0.847-0.578-1.405-1.46-1.674-2.644v0c-0.379-1.669-0.042-3.17 1.011-4.504 1.045-1.338 2.739-2.274 5.081-2.805v0c1.643-0.373 2.889-0.477 3.739-0.312 0.848 0.158 1.365 0.647 1.55 1.464v0c0.147 0.648 0.175 1.209 0.083 1.685-0.097 0.483-0.312 0.762-0.645 0.838v0c-0.105 0.024-0.245 0.028-0.421 0.013-0.181-0.007-0.342-0.036-0.484-0.086v0c-0.239-0.083-0.604-0.19-1.094-0.32-0.485-0.138-1.021-0.239-1.608-0.306-0.588-0.073-1.176-0.043-1.765 0.092v0c-0.589 0.134-1.031 0.416-1.325 0.848-0.293 0.438-0.372 0.952-0.238 1.54v0c0.111 0.491 0.359 0.868 0.742 1.132 0.383 0.264 0.976 0.494 1.778 0.691v0l2.776 0.587c1.164 0.245 2.148 0.624 2.952 1.137 0.803 0.506 1.35 1.4 1.641 2.682v0c0.345 1.518 0.264 2.861-0.241 4.029-0.504 1.174-1.3 2.14-2.388 2.896-1.08 0.761-2.303 1.297-3.671 1.608z" fill="#fbfbf8" data-fill-palette-color="primary"></path><path d="M146.187 25.034l-2.809 0.026c-0.295 0.003-0.515-0.133-0.658-0.406-0.15-0.274-0.247-0.582-0.29-0.924-0.043-0.342-0.066-0.62-0.069-0.835v0c-0.003-0.369 0.019-0.842 0.068-1.42 0.048-0.584 0.11-1.199 0.184-1.844 0.075-0.645 0.146-1.206 0.216-1.683v0l0.636-4.123c0.076-0.524 0.152-1.018 0.228-1.482 0.076-0.464 0.112-0.957 0.107-1.481v0c-0.004-0.396-0.087-0.701-0.25-0.914-0.163-0.207-0.375-0.309-0.638-0.306v0c-0.342 0.003-0.906 0.337-1.692 1.003-0.786 0.665-1.619 1.616-2.5 2.852-0.888 1.236-1.686 2.714-2.395 4.431-0.709 1.725-1.161 3.642-1.355 5.751v0l-1.082-5.849c0.77-2.302 1.645-4.247 2.624-5.833 0.972-1.593 1.966-2.884 2.984-3.873 1.018-0.983 2.008-1.703 2.969-2.162 0.955-0.459 1.802-0.691 2.541-0.698v0c0.792-0.007 1.434 0.134 1.927 0.425 0.493 0.284 0.852 0.683 1.078 1.198 0.226 0.508 0.342 1.104 0.349 1.788v0c0.006 0.664-0.031 1.319-0.113 1.964-0.088 0.645-0.182 1.31-0.283 1.996v0zM131.552 25.332v0c-0.349 0.003-0.608-0.055-0.777-0.174-0.176-0.112-0.272-0.42-0.29-0.924-0.018-0.503 0.035-1.309 0.159-2.417v0l1.709-16.466 2.768-0.025c0.396-0.004 0.754 0.282 1.075 0.855 0.321 0.574 0.485 1.23 0.491 1.969v0c0.003 0.349-0.089 0.887-0.277 1.613-0.195 0.727-0.419 1.494-0.673 2.302-0.254 0.801-0.486 1.508-0.695 2.12v0l-0.996 3.251 1.457-0.255-0.564 6.498c-0.024 0.262-0.183 0.502-0.476 0.719-0.287 0.211-0.627 0.385-1.022 0.523-0.395 0.131-0.77 0.232-1.125 0.303-0.355 0.07-0.61 0.106-0.764 0.108z" fill="#fbfbf8" data-fill-palette-color="primary"></path><path d="M162.562 27.473l-2.719-0.523c-0.442-0.085-0.676-0.393-0.703-0.925-0.035-0.526 0-1.063 0.105-1.61v0c0.179-0.929 0.384-1.747 0.616-2.454 0.232-0.707 0.482-1.493 0.751-2.357v0l3.803-12.195 2.719 0.524c0.514 0.099 0.796 0.447 0.844 1.044 0.049 0.597 0.004 1.258-0.136 1.983v0c-0.071 0.369-0.171 0.746-0.299 1.131-0.13 0.392-0.328 0.993-0.594 1.803v0l-1.951 6.196c-0.417 1.314-0.778 2.41-1.084 3.287-0.3 0.885-0.552 1.643-0.755 2.273-0.203 0.631-0.402 1.238-0.597 1.823zM167.481 5.703v0c-0.725-0.14-1.307-0.508-1.746-1.105-0.432-0.596-0.571-1.296-0.416-2.099v0c0.184-0.956 0.637-1.641 1.36-2.055 0.721-0.408 1.483-0.535 2.287-0.38v0c0.751 0.145 1.338 0.487 1.761 1.026 0.422 0.539 0.549 1.247 0.38 2.123v0c-0.17 0.883-0.611 1.557-1.322 2.021-0.706 0.472-1.474 0.629-2.304 0.469z" fill="#fbfbf8" data-fill-palette-color="primary"></path><path d="M182.153 33.747v0c-1.052-0.425-1.956-0.953-2.715-1.585-0.749-0.636-1.37-1.223-1.861-1.761v0l2.618-3.123c0.481 0.708 1.019 1.367 1.612 1.976 0.594 0.609 1.173 1.129 1.737 1.559 0.573 0.427 1.052 0.718 1.438 0.874v0c0.759 0.307 1.582 0.248 2.47-0.175 0.881-0.426 1.742-1.167 2.582-2.225 0.837-1.051 1.562-2.336 2.175-3.854v0c0.573-1.419 0.896-2.54 0.969-3.366 0.076-0.816-0.106-1.313-0.549-1.491v0c-0.292-0.118-0.985-0.007-2.077 0.333-1.087 0.343-2.537 1.121-4.353 2.335-1.815 1.214-3.964 3.067-6.447 5.56v0l0.513-3.582c2.638-2.517 4.921-4.389 6.85-5.614 1.931-1.232 3.594-1.972 4.989-2.219 1.395-0.247 2.606-0.163 3.633 0.251v0c1.518 0.613 2.3 1.599 2.345 2.956 0.052 1.36-0.312 3.004-1.091 4.933v0c-0.958 2.371-2.249 4.296-3.874 5.774-1.619 1.481-3.387 2.446-5.306 2.895-1.918 0.448-3.804 0.298-5.658-0.451zM175.075 39.552l-2.576-1.041c-0.386-0.156-0.63-0.446-0.734-0.871-0.095-0.429-0.097-0.879-0.009-1.35 0.091-0.477 0.211-0.899 0.36-1.266v0c0.199-0.492 0.465-1.079 0.798-1.762 0.336-0.689 0.753-1.505 1.25-2.448v0l9.739-17.986 2.567 1.037c0.342 0.138 0.557 0.395 0.644 0.77 0.093 0.378 0.105 0.788 0.036 1.23-0.064 0.445-0.169 0.847-0.315 1.209v0c-0.188 0.467-0.6 1.1-1.234 1.9-0.632 0.794-1.46 1.824-2.486 3.09v0l-1.963 2.442 1.092 0.441-2.543 4.737-0.529 0.341z" fill="#fbfbf8" data-fill-palette-color="primary"></path><path d="M206.534 47.214v0c-0.919-0.665-1.671-1.395-2.255-2.19-0.575-0.797-1.036-1.516-1.384-2.157v0l3.291-2.402c0.297 0.803 0.661 1.571 1.091 2.304 0.43 0.734 0.867 1.377 1.312 1.931 0.454 0.552 0.849 0.95 1.186 1.194v0c0.663 0.48 1.477 0.621 2.44 0.423 0.958-0.202 1.971-0.715 3.04-1.541 1.065-0.82 2.078-1.893 3.038-3.219v0c0.897-1.24 1.479-2.251 1.747-3.035 0.27-0.774 0.212-1.3-0.174-1.58v0c-0.256-0.185-0.955-0.243-2.097-0.175-1.137 0.072-2.732 0.479-4.785 1.222-2.053 0.743-4.584 2.026-7.594 3.85v0l1.358-3.353c3.165-1.81 5.831-3.079 7.997-3.807 2.17-0.733 3.962-1.052 5.376-0.957 1.414 0.095 2.569 0.467 3.466 1.117v0c1.327 0.96 1.849 2.104 1.568 3.432-0.276 1.332-1.024 2.841-2.244 4.527v0c-1.499 2.072-3.214 3.63-5.147 4.676-1.927 1.049-3.875 1.562-5.845 1.536-1.97-0.025-3.765-0.624-5.385-1.796zM198.27 51.15l-2.251-1.628c-0.337-0.244-0.505-0.585-0.503-1.022 0.011-0.439 0.116-0.877 0.315-1.313 0.203-0.441 0.421-0.822 0.653-1.143v0c0.311-0.43 0.71-0.936 1.198-1.518 0.492-0.588 1.092-1.281 1.801-2.077v0l13.772-15.122 2.243 1.622c0.299 0.216 0.446 0.517 0.44 0.903 0 0.389-0.087 0.79-0.261 1.203-0.169 0.416-0.367 0.782-0.595 1.097v0c-0.295 0.408-0.847 0.924-1.655 1.549-0.804 0.619-1.856 1.42-3.154 2.402v0l-2.492 1.9 0.954 0.69-3.606 3.989-0.595 0.203z" fill="#fbfbf8" data-fill-palette-color="primary"></path><path d="M225.492 64.25v0c-1.329-1.53-1.873-3.133-1.632-4.809 0.236-1.672 1.201-3.243 2.893-4.714v0c1.413-1.228 2.88-2.155 4.398-2.78 1.523-0.621 3.033-0.955 4.53-1.002 1.501-0.042 2.908 0.211 4.221 0.76 1.317 0.554 2.468 1.398 3.454 2.533v0c1.175 1.353 1.786 2.64 1.834 3.861 0.048 1.212-0.467 2.286-1.546 3.224v0c-1.094 0.951-2.364 1.418-3.809 1.402-1.449-0.021-3.055-0.462-4.817-1.323-1.761-0.861-3.665-2.065-5.711-3.612v0l1.456-1.946c1.097 0.976 2.211 1.773 3.343 2.39 1.131 0.627 2.222 0.972 3.274 1.036 1.052 0.064 1.967-0.242 2.748-0.92v0c0.537-0.467 0.855-0.925 0.952-1.375 0.098-0.45-0.088-0.946-0.559-1.487v0c-0.709-0.816-1.608-1.248-2.699-1.296-1.091-0.048-2.24 0.199-3.448 0.743-1.203 0.539-2.342 1.274-3.416 2.207v0c-1.454 1.263-2.231 2.334-2.331 3.211-0.099 0.868 0.232 1.741 0.994 2.618v0c0.797 0.917 1.636 1.592 2.519 2.025 0.887 0.438 1.706 0.767 2.457 0.986v0c0.242 0.074 0.442 0.145 0.598 0.213 0.166 0.069 0.285 0.144 0.356 0.225v0c0.084 0.096 0.111 0.21 0.083 0.341-0.023 0.127-0.085 0.234-0.187 0.322v0c-0.36 0.312-0.916 0.516-1.67 0.611-0.753 0.095-1.616 0.048-2.588-0.139-0.967-0.192-1.95-0.551-2.949-1.078-1-0.527-1.916-1.269-2.748-2.227z" fill="#fbfbf8" data-fill-palette-color="primary"></path><path d="M238.832 82.573v0c-0.63-1.101-0.753-2.059-0.368-2.874 0.387-0.809 1.314-1.529 2.778-2.158v0l11.237-4.643-0.629-1.101c-0.197-0.344-0.111-0.621 0.255-0.831v0c0.233-0.133 0.653-0.169 1.261-0.106 0.614 0.059 1.321 0.18 2.122 0.363 0.803 0.174 1.59 0.381 2.361 0.621 0.78 0.242 1.449 0.493 2.008 0.753 0.555 0.254 0.9 0.498 1.033 0.731v0c0.143 0.25 0.141 0.476-0.007 0.677-0.139 0.203-0.37 0.366-0.694 0.49v0l-2.884 1.243 2.2 3.845c0.197 0.344 0.253 0.578 0.17 0.703-0.083 0.125-0.277 0.212-0.58 0.262v0c-0.937 0.173-1.559 0.188-1.864 0.046-0.315-0.145-0.655-0.537-1.022-1.178v0l-1.57-2.744-7.83 3.343c-0.464 0.203-0.9 0.399-1.31 0.588-0.41 0.188-0.776 0.374-1.096 0.557v0c-0.524 0.3-0.822 0.637-0.895 1.011-0.078 0.377 0.048 0.854 0.378 1.43v0c0.313 0.548 0.701 0.956 1.164 1.225 0.457 0.272 0.731 0.487 0.821 0.644v0c0.103 0.181 0.041 0.336-0.186 0.465v0c-0.233 0.133-0.625 0.199-1.175 0.197-0.544-0.006-1.164-0.123-1.859-0.351-0.692-0.223-1.377-0.596-2.056-1.12-0.679-0.524-1.266-1.22-1.763-2.088z" fill="#fbfbf8" data-fill-palette-color="primary"></path><path d="M247.891 102.429v0c-0.649-1.892-0.868-3.48-0.656-4.766 0.218-1.288 0.825-2.103 1.822-2.445v0c0.451-0.155 0.892-0.232 1.325-0.232 0.435 0.007 0.7 0.147 0.794 0.42v0c0.035 0.102 0.049 0.225 0.041 0.369-0.009 0.138-0.068 0.421-0.177 0.848v0c-0.152 0.613-0.259 1.27-0.323 1.974-0.064 0.703-0.068 1.403-0.014 2.101 0.059 0.689 0.182 1.307 0.37 1.852v0c0.274 0.8 0.667 1.314 1.178 1.544 0.511 0.229 1.091 0.232 1.739 0.01v0c0.47-0.161 0.814-0.439 1.033-0.834 0.213-0.392 0.412-0.971 0.596-1.737v0l0.701-2.826c0.287-1.191 0.672-2.239 1.157-3.143 0.484-0.904 1.301-1.553 2.45-1.948v0c1.619-0.555 3.147-0.381 4.586 0.524 1.443 0.896 2.554 2.48 3.333 4.752v0c0.547 1.593 0.783 2.821 0.71 3.683-0.067 0.86-0.497 1.426-1.29 1.699v0c-0.628 0.216-1.184 0.303-1.666 0.263-0.491-0.044-0.791-0.229-0.902-0.553v0c-0.035-0.102-0.054-0.24-0.058-0.416-0.012-0.18-0.001-0.344 0.034-0.491v0c0.057-0.247 0.124-0.621 0.2-1.122 0.085-0.497 0.129-1.041 0.132-1.631 0.01-0.592-0.084-1.174-0.279-1.745v0c-0.196-0.571-0.524-0.98-0.985-1.227-0.467-0.244-0.986-0.268-1.558-0.072v0c-0.476 0.163-0.825 0.45-1.046 0.859-0.221 0.409-0.387 1.023-0.496 1.841v0l-0.287 2.823c-0.119 1.183-0.39 2.202-0.814 3.057-0.417 0.853-1.248 1.492-2.492 1.919v0c-1.473 0.505-2.817 0.569-4.031 0.192-1.221-0.376-2.266-1.064-3.135-2.064-0.872-0.992-1.536-2.151-1.992-3.478z" fill="#fbfbf8" data-fill-palette-color="primary"></path><path d="M9.477 184.042v0c-0.635-1.946-0.518-3.636 0.348-5.069 0.875-1.429 2.445-2.513 4.71-3.251v0c2.22-0.724 4.36-0.938 6.419-0.643 2.059 0.296 3.846 1.036 5.362 2.222 1.514 1.179 2.589 2.745 3.226 4.698v0c0.337 1.034 0.5 1.986 0.487 2.858-0.016 0.881-0.455 1.461-1.316 1.743v0c-0.37 0.121-0.76 0.181-1.17 0.18-0.412-0.007-0.771-0.07-1.078-0.189-0.313-0.117-0.501-0.271-0.563-0.462v0c-0.033-0.102-0.046-0.25-0.039-0.443 0.001-0.191 0.02-0.36 0.058-0.505v0c0.083-0.331 0.173-0.724 0.272-1.18 0.101-0.449 0.162-0.932 0.184-1.447 0.025-0.509-0.044-1.013-0.206-1.51v0c-0.248-0.759-0.828-1.325-1.74-1.699-0.912-0.373-2.018-0.538-3.317-0.496-1.293 0.04-2.628 0.285-4.006 0.735v0c-1.825 0.595-2.95 1.269-3.375 2.022-0.419 0.751-0.455 1.656-0.11 2.714v0c0.289 0.887 0.688 1.59 1.196 2.109 0.506 0.513 1.049 0.988 1.63 1.427v0c0.22 0.175 0.368 0.318 0.446 0.427 0.08 0.115 0.135 0.221 0.166 0.316v0c0.04 0.121 0.021 0.237-0.056 0.347-0.073 0.101-0.173 0.173-0.301 0.214v0c-0.44 0.144-1.01 0.128-1.709-0.046-0.701-0.181-1.422-0.507-2.161-0.979-0.738-0.465-1.41-1.044-2.017-1.735-0.605-0.685-1.052-1.471-1.34-2.358z" fill="#fbfbf8" data-fill-palette-color="primary"></path><path d="M20.771 209.346v0c-1.113-1.93-1.41-3.754-0.889-5.472 0.517-1.723 1.877-3.221 4.079-4.491v0c1.459-0.842 2.95-1.38 4.473-1.615 1.522-0.235 2.997-0.21 4.424 0.074 1.421 0.288 2.71 0.823 3.866 1.606 1.154 0.791 2.079 1.791 2.776 3v0c1.113 1.93 1.392 3.737 0.837 5.421-0.555 1.684-1.987 3.191-4.294 4.522v0c-1.395 0.805-2.836 1.329-4.322 1.574-1.495 0.242-2.94 0.228-4.336-0.044-1.396-0.272-2.669-0.793-3.818-1.563-1.149-0.77-2.081-1.775-2.796-3.012zM23.768 208.698v0c0.493 0.855 1.231 1.409 2.214 1.663 0.983 0.254 2.118 0.227 3.405-0.081 1.292-0.312 2.622-0.861 3.987-1.649v0c1.459-0.842 2.49-1.727 3.094-2.656 0.6-0.935 0.61-1.905 0.029-2.911v0c-0.479-0.831-1.218-1.386-2.214-1.663-1.002-0.274-2.148-0.272-3.436 0.007-1.288 0.278-2.63 0.82-4.025 1.624v0c-1.546 0.892-2.581 1.818-3.105 2.778-0.523 0.96-0.506 1.923 0.051 2.888z" fill="#fbfbf8" data-fill-palette-color="primary"></path><path d="M36.955 232.09v0c-0.965-1.018-1.244-2.141-0.837-3.368 0.412-1.223 1.417-2.592 3.015-4.107v0c1.373-1.302 2.817-2.306 4.33-3.011 1.514-0.705 3.018-1.104 4.511-1.198 1.498-0.098 2.915 0.094 4.25 0.576 1.335 0.482 2.513 1.261 3.534 2.337v0c0.623 0.657 1.133 1.414 1.527 2.269 0.4 0.851 0.709 1.621 0.929 2.31v0l-3.62 1.713c-0.144-0.825-0.355-1.633-0.634-2.424-0.283-0.786-0.578-1.473-0.885-2.06-0.303-0.582-0.569-0.995-0.8-1.239v0c-0.517-0.545-1.249-0.8-2.194-0.763-0.951 0.041-2.01 0.357-3.18 0.948-1.169 0.591-2.348 1.45-3.536 2.577v0c-1.091 1.034-1.84 1.897-2.248 2.589-0.412 0.696-0.45 1.222-0.113 1.578v0c0.286 0.302 1.005 0.504 2.156 0.605 1.155 0.107 2.778-0.035 4.868-0.426 2.09-0.4 4.681-1.188 7.774-2.364v0l-1.73 3.194c-3.206 1.144-5.94 1.86-8.203 2.146-2.262 0.286-4.118 0.251-5.565-0.105-1.448-0.356-2.564-0.949-3.349-1.777zM46.058 241.354l-1.877-1.98c-0.194-0.205-0.243-0.495-0.148-0.872 0.091-0.373 0.269-0.755 0.536-1.147 0.267-0.401 0.542-0.736 0.824-1.003v0c0.467-0.443 1.079-0.871 1.836-1.283 0.756-0.412 1.71-0.932 2.861-1.562v0l2.652-1.446 0.122-1.67 3.264-2.498 0.849-0.056 7.636-6.811 2.085 2.199c0.268 0.282 0.365 0.629 0.292 1.04-0.077 0.406-0.24 0.81-0.488 1.212-0.248 0.392-0.523 0.731-0.824 1.017v0c-0.19 0.18-0.411 0.371-0.663 0.574-0.252 0.202-0.606 0.468-1.061 0.798-0.464 0.329-1.105 0.775-1.923 1.337v0l-7.373 5.23c-1.026 0.723-2.054 1.481-3.087 2.275-1.028 0.799-2.008 1.594-2.94 2.386-0.923 0.792-1.781 1.545-2.573 2.26z" fill="#fbfbf8" data-fill-palette-color="primary"></path><path d="M63.615 255.429v0c-1.666-1.094-2.61-2.468-2.832-4.123-0.22-1.646 0.274-3.389 1.482-5.229v0c1.009-1.537 2.15-2.803 3.422-3.798 1.277-0.992 2.619-1.709 4.025-2.151 1.406-0.442 2.805-0.579 4.196-0.412 1.388 0.173 2.702 0.666 3.941 1.48v0c1.47 0.965 2.388 2.018 2.756 3.158 0.367 1.14 0.168 2.294-0.598 3.461v0c-0.785 1.195-1.863 1.976-3.237 2.343-1.373 0.367-3.006 0.379-4.899 0.034-1.899-0.348-4.022-0.979-6.368-1.893v0l0.861-2.228c1.294 0.633 2.56 1.09 3.795 1.372 1.242 0.285 2.368 0.318 3.379 0.099 1.011-0.219 1.793-0.75 2.346-1.591v0c0.387-0.589 0.567-1.109 0.542-1.559-0.031-0.454-0.338-0.872-0.922-1.256v0c-0.892-0.586-1.86-0.756-2.905-0.51-1.044 0.246-2.064 0.784-3.06 1.616-0.999 0.837-1.882 1.839-2.648 3.006v0c-1.039 1.582-1.489 2.8-1.35 3.653 0.138 0.853 0.684 1.593 1.637 2.22v0c0.999 0.656 1.974 1.071 2.927 1.247 0.952 0.176 1.815 0.268 2.587 0.277v0c0.248 0.002 0.456 0.014 0.626 0.038 0.173 0.017 0.302 0.054 0.386 0.109v0c0.112 0.074 0.17 0.176 0.172 0.306 0.012 0.128-0.017 0.246-0.086 0.352v0c-0.258 0.393-0.732 0.736-1.423 1.029-0.687 0.288-1.514 0.471-2.481 0.551-0.967 0.079-1.993 0.004-3.078-0.227-1.091-0.234-2.155-0.692-3.193-1.374z" fill="#fbfbf8" data-fill-palette-color="primary"></path><path d="M108.301 274.782v0c-1.918-0.435-3.358-1.076-4.322-1.921-0.964-0.845-1.332-1.772-1.104-2.779v0c0.104-0.458 0.269-0.868 0.496-1.229 0.225-0.355 0.478-0.5 0.76-0.437v0c0.098 0.022 0.204 0.07 0.318 0.144 0.119 0.082 0.329 0.278 0.631 0.587v0c0.43 0.442 0.924 0.87 1.483 1.287 0.551 0.421 1.132 0.787 1.743 1.098 0.604 0.309 1.184 0.527 1.741 0.653v0c0.812 0.184 1.445 0.122 1.901-0.188 0.456-0.309 0.758-0.791 0.906-1.446v0c0.108-0.478 0.052-0.91-0.17-1.298-0.217-0.38-0.596-0.844-1.139-1.394v0l-2.003-2.044c-0.844-0.859-1.518-1.724-2.022-2.596-0.504-0.871-0.624-1.89-0.36-3.055v0c0.373-1.643 1.307-2.831 2.802-3.565 1.496-0.741 3.393-0.85 5.69-0.329v0c1.616 0.367 2.766 0.804 3.45 1.31 0.685 0.5 0.935 1.155 0.751 1.967v0c-0.143 0.628-0.358 1.137-0.646 1.525-0.286 0.382-0.593 0.536-0.92 0.462v0c-0.098-0.022-0.227-0.076-0.387-0.16-0.152-0.089-0.281-0.188-0.387-0.294v0c-0.175-0.17-0.449-0.418-0.822-0.744-0.381-0.321-0.816-0.636-1.303-0.946-0.487-0.31-1.022-0.531-1.604-0.664v0c-0.582-0.132-1.096-0.07-1.54 0.187-0.444 0.257-0.732 0.677-0.864 1.26v0c-0.108 0.478-0.049 0.914 0.178 1.31 0.233 0.397 0.662 0.856 1.288 1.376v0l2.207 1.688c0.924 0.719 1.637 1.473 2.14 2.261 0.494 0.793 0.598 1.822 0.311 3.085v0c-0.339 1.492-0.98 2.647-1.922 3.466-0.944 0.825-2.06 1.342-3.346 1.552-1.281 0.218-2.593 0.175-3.935-0.129z" fill="#fbfbf8" data-fill-palette-color="primary"></path><path d="M145.868 278.036l-2.758-0.025c-0.282-0.003-0.495-0.142-0.64-0.419-0.138-0.27-0.226-0.576-0.264-0.918-0.03-0.336-0.045-0.608-0.043-0.816v0c0.003-0.362 0.031-0.829 0.084-1.398 0.059-0.57 0.132-1.17 0.217-1.8 0.08-0.637 0.162-1.19 0.247-1.659v0l0.691-4.031c0.085-0.523 0.17-1.008 0.255-1.457 0.078-0.456 0.119-0.942 0.125-1.458v0c0.004-0.389-0.071-0.689-0.224-0.898-0.152-0.209-0.36-0.315-0.621-0.318v0c-0.336-0.003-0.895 0.317-1.68 0.961-0.784 0.637-1.622 1.556-2.512 2.755-0.89 1.2-1.702 2.639-2.435 4.317-0.727 1.678-1.204 3.553-1.431 5.624v0l-0.954-5.767c0.799-2.248 1.692-4.145 2.68-5.693 0.981-1.541 1.982-2.787 3.004-3.738 1.022-0.95 2.008-1.643 2.959-2.077 0.95-0.434 1.788-0.648 2.512-0.641v0c0.778 0.007 1.405 0.157 1.878 0.45 0.481 0.286 0.826 0.685 1.036 1.197 0.217 0.505 0.322 1.097 0.316 1.775v0c-0.006 0.644-0.055 1.285-0.148 1.922-0.1 0.63-0.203 1.283-0.31 1.96v0zM131.482 278.056v0c-0.336-0.003-0.587-0.062-0.753-0.179-0.167-0.122-0.254-0.428-0.263-0.918-0.009-0.49 0.055-1.281 0.192-2.374v0l1.981-16.149 2.718 0.025c0.389 0.004 0.739 0.292 1.049 0.865 0.303 0.573 0.452 1.222 0.445 1.947v0c-0.003 0.336-0.105 0.858-0.306 1.568-0.201 0.71-0.436 1.459-0.706 2.248-0.262 0.79-0.5 1.482-0.713 2.077v0l-1.046 3.172 1.441-0.218-0.682 6.376c-0.022 0.255-0.179 0.485-0.47 0.69-0.284 0.205-0.621 0.37-1.011 0.494-0.39 0.131-0.76 0.225-1.11 0.282-0.356 0.064-0.612 0.095-0.766 0.094z" fill="#fbfbf8" data-fill-palette-color="primary"></path><path d="M166.593 275.676l-2.669 0.515c-0.435 0.084-0.763-0.112-0.985-0.589-0.227-0.469-0.392-0.97-0.495-1.504v0c-0.177-0.916-0.288-1.739-0.333-2.468-0.052-0.728-0.109-1.537-0.172-2.428v0l-0.99-12.511 2.669-0.515c0.507-0.098 0.894 0.118 1.161 0.647 0.26 0.531 0.458 1.152 0.595 1.864v0c0.069 0.356 0.115 0.737 0.139 1.142 0.024 0.406 0.064 1.023 0.121 1.853v0l0.481 6.366c0.096 1.348 0.168 2.483 0.216 3.403 0.047 0.914 0.091 1.694 0.134 2.342 0.051 0.653 0.093 1.281 0.128 1.883zM163.127 254.005v0c-0.718 0.139-1.384 0.018-1.997-0.363-0.613-0.381-0.996-0.966-1.149-1.757v0c-0.182-0.942-0.017-1.733 0.495-2.372 0.506-0.638 1.154-1.033 1.945-1.185v0c0.738-0.142 1.395-0.047 1.972 0.286 0.585 0.338 0.96 0.939 1.127 1.802v0c0.168 0.87 0.014 1.648-0.461 2.334-0.477 0.68-1.121 1.098-1.932 1.255z" fill="#fbfbf8" data-fill-palette-color="primary"></path><path d="M190.174 268.219v0c-1.033 0.418-2.032 0.66-2.997 0.725-0.963 0.071-1.804 0.086-2.524 0.045v0l-0.275-4.005c0.823 0.173 1.652 0.272 2.488 0.296 0.835 0.024 1.601-0.007 2.297-0.094 0.69-0.084 1.228-0.204 1.613-0.36v0c0.746-0.302 1.285-0.904 1.615-1.805 0.336-0.904 0.439-2.017 0.309-3.34-0.128-1.317-0.493-2.718-1.094-4.205v0c-0.564-1.393-1.101-2.407-1.612-3.04-0.51-0.633-0.979-0.863-1.408-0.69v0c-0.292 0.118-0.706 0.67-1.242 1.654-0.542 0.987-1.035 2.53-1.481 4.629-0.452 2.102-0.705 4.883-0.759 8.345v0l-2.093-2.889c0.148-3.586 0.486-6.471 1.014-8.654 0.528-2.183 1.197-3.837 2.009-4.962 0.815-1.134 1.727-1.905 2.734-2.313v0c1.493-0.605 2.72-0.443 3.683 0.486 0.962 0.928 1.828 2.341 2.596 4.238v0c0.942 2.326 1.346 4.567 1.211 6.72-0.134 2.154-0.726 4.045-1.776 5.672-1.044 1.625-2.48 2.807-4.308 3.547zM189.143 277.152l-2.529 1.024c-0.386 0.156-0.756 0.118-1.111-0.115-0.361-0.23-0.673-0.545-0.937-0.946-0.255-0.396-0.455-0.775-0.601-1.136v0c-0.196-0.485-0.411-1.086-0.643-1.803-0.239-0.714-0.502-1.571-0.79-2.569v0l-5.41-19.367 2.519-1.02c0.336-0.136 0.664-0.103 0.985 0.1 0.321 0.203 0.609 0.485 0.864 0.845 0.261 0.358 0.464 0.717 0.61 1.078v0c0.184 0.454 0.322 1.18 0.415 2.178 0.099 0.995 0.218 2.29 0.357 3.885v0l0.286 3.066 1.073-0.434 1.431 5.089-0.128 0.595z" fill="#fbfbf8" data-fill-palette-color="primary"></path><path d="M218.965 252.288v0c-0.902 0.653-1.814 1.127-2.737 1.422-0.918 0.3-1.731 0.516-2.439 0.648v0l-1.226-3.822c0.841-0.029 1.669-0.132 2.485-0.309 0.816-0.177 1.552-0.391 2.208-0.641 0.65-0.247 1.143-0.492 1.48-0.737v0c0.652-0.472 1.031-1.185 1.136-2.139 0.11-0.958-0.057-2.064-0.501-3.317-0.44-1.248-1.13-2.521-2.07-3.82v0c-0.882-1.218-1.646-2.073-2.293-2.565-0.647-0.493-1.158-0.603-1.533-0.332v0c-0.255 0.185-0.525 0.819-0.809 1.903-0.289 1.088-0.399 2.704-0.329 4.849 0.065 2.149 0.486 4.91 1.263 8.283v0l-2.724-2.303c-0.716-3.517-1.079-6.398-1.09-8.644-0.011-2.246 0.243-4.012 0.762-5.299 0.52-1.296 1.22-2.263 2.1-2.901v0c1.305-0.945 2.535-1.082 3.692-0.411 1.157 0.67 2.335 1.835 3.536 3.492v0c1.472 2.033 2.401 4.111 2.787 6.235 0.386 2.123 0.264 4.101-0.365 5.932-0.624 1.827-1.735 3.32-3.333 4.476zM220.104 261.208l-2.21 1.6c-0.337 0.244-0.706 0.296-1.106 0.154-0.406-0.137-0.784-0.368-1.136-0.693-0.342-0.324-0.628-0.643-0.856-0.959v0c-0.307-0.424-0.659-0.956-1.056-1.596-0.403-0.636-0.864-1.405-1.383-2.305v0l-9.894-17.507 2.202-1.594c0.294-0.213 0.62-0.259 0.981-0.138 0.36 0.12 0.707 0.325 1.041 0.613 0.339 0.285 0.622 0.585 0.85 0.9v0c0.287 0.397 0.596 1.068 0.925 2.015 0.335 0.943 0.76 2.171 1.277 3.686v0l1.013 2.909 0.937-0.679 2.609 4.598 0.018 0.609z" fill="#fbfbf8" data-fill-palette-color="primary"></path><path d="M241.472 231.979v0c-1.307 1.505-2.795 2.257-4.465 2.256-1.66-0.002-3.322-0.724-4.983-2.167v0c-1.389-1.205-2.491-2.505-3.308-3.898-0.812-1.398-1.344-2.824-1.594-4.276-0.25-1.452-0.199-2.857 0.152-4.213 0.356-1.352 1.021-2.589 1.993-3.709v0c1.153-1.328 2.318-2.098 3.498-2.309 1.179-0.212 2.296 0.14 3.349 1.055v0c1.079 0.937 1.709 2.11 1.89 3.52 0.18 1.41-0.026 3.03-0.62 4.86-0.598 1.836-1.507 3.855-2.726 6.058v0l-2.094-1.151c0.8-1.198 1.422-2.391 1.867-3.578 0.449-1.192 0.632-2.304 0.549-3.335-0.082-1.031-0.504-1.877-1.263-2.537v0c-0.532-0.462-1.023-0.71-1.473-0.745-0.454-0.03-0.91 0.219-1.367 0.746v0c-0.699 0.806-0.997 1.743-0.894 2.81 0.104 1.068 0.502 2.151 1.193 3.248 0.696 1.102 1.571 2.111 2.626 3.026v0c1.429 1.241 2.576 1.849 3.44 1.826 0.864-0.023 1.67-0.465 2.418-1.327v0c0.783-0.902 1.325-1.813 1.626-2.733 0.301-0.92 0.508-1.763 0.621-2.527v0c0.035-0.245 0.075-0.45 0.121-0.615 0.04-0.169 0.094-0.292 0.159-0.368v0c0.088-0.101 0.197-0.145 0.326-0.13 0.129 0.005 0.241 0.05 0.338 0.133v0c0.355 0.308 0.631 0.824 0.83 1.547 0.193 0.719 0.265 1.563 0.214 2.532-0.05 0.969-0.262 1.976-0.635 3.02-0.378 1.049-0.974 2.043-1.788 2.981z" fill="#fbfbf8" data-fill-palette-color="primary"></path><path d="M257.21 210.244v0c-0.619 1.084-1.368 1.665-2.247 1.742-0.879 0.078-1.95-0.348-3.211-1.278v0l-9.549-7.192-0.614 1.075c-0.193 0.338-0.47 0.404-0.831 0.197v0c-0.227-0.13-0.467-0.468-0.72-1.013-0.252-0.546-0.503-1.203-0.752-1.972-0.249-0.768-0.465-1.541-0.647-2.317-0.182-0.777-0.302-1.467-0.359-2.071-0.066-0.602-0.034-1.016 0.096-1.244v0c0.14-0.245 0.332-0.359 0.578-0.342 0.242 0.022 0.496 0.14 0.76 0.353v0l2.497 1.82 2.157-3.776c0.193-0.338 0.364-0.503 0.514-0.495 0.141 0.011 0.311 0.131 0.512 0.362v0c0.61 0.704 0.932 1.224 0.964 1.56 0.033 0.335-0.131 0.818-0.49 1.447v0l-1.543 2.701 6.741 4.963c0.405 0.293 0.786 0.565 1.145 0.816 0.365 0.255 0.704 0.472 1.019 0.651v0c0.519 0.296 0.957 0.381 1.316 0.254 0.35-0.125 0.686-0.47 1.009-1.036v0c0.31-0.542 0.465-1.071 0.467-1.588-0.001-0.526 0.044-0.868 0.133-1.025v0c0.103-0.181 0.268-0.206 0.496-0.076v0c0.221 0.126 0.468 0.426 0.739 0.897 0.269 0.463 0.48 1.047 0.633 1.753 0.151 0.697 0.176 1.465 0.076 2.304-0.103 0.83-0.399 1.673-0.889 2.53z" fill="#fbfbf8" data-fill-palette-color="primary"></path><path d="M267.92 186.68v0c-0.636 1.861-1.425 3.226-2.368 4.095-0.942 0.869-1.903 1.137-2.881 0.803v0c-0.445-0.152-0.835-0.36-1.169-0.623-0.329-0.261-0.447-0.529-0.354-0.802v0c0.033-0.095 0.092-0.196 0.177-0.301 0.094-0.11 0.311-0.298 0.651-0.565v0c0.485-0.38 0.963-0.827 1.436-1.339 0.477-0.504 0.902-1.043 1.276-1.617 0.371-0.568 0.649-1.122 0.834-1.661v0c0.269-0.787 0.274-1.424 0.014-1.91-0.26-0.486-0.707-0.837-1.342-1.055v0c-0.464-0.158-0.9-0.148-1.308 0.032-0.4 0.175-0.903 0.504-1.507 0.985v0l-2.245 1.775c-0.944 0.748-1.875 1.327-2.795 1.736-0.92 0.409-1.945 0.42-3.076 0.035v0c-1.594-0.545-2.677-1.599-3.249-3.164-0.578-1.566-0.486-3.464 0.276-5.693v0c0.536-1.569 1.092-2.666 1.667-3.291 0.569-0.628 1.248-0.808 2.035-0.539v0c0.61 0.208 1.093 0.476 1.449 0.804 0.35 0.325 0.471 0.647 0.362 0.964v0c-0.033 0.095-0.099 0.218-0.2 0.367-0.105 0.141-0.216 0.259-0.334 0.354v0c-0.188 0.156-0.464 0.402-0.827 0.739-0.359 0.345-0.719 0.744-1.078 1.195-0.36 0.451-0.636 0.96-0.83 1.525v0c-0.193 0.565-0.185 1.082 0.023 1.551 0.209 0.468 0.596 0.799 1.161 0.992v0c0.464 0.158 0.904 0.146 1.322-0.038 0.42-0.19 0.921-0.568 1.504-1.134v0l1.913-2.017c0.813-0.843 1.638-1.472 2.475-1.888 0.841-0.408 1.875-0.402 3.1 0.017v0c1.448 0.495 2.529 1.254 3.243 2.278 0.72 1.026 1.117 2.19 1.19 3.492 0.081 1.297-0.1 2.597-0.545 3.898z" fill="#fbfbf8" data-fill-palette-color="primary"></path><path d="M2.562 141.217c0-5.808 4.709-10.517 10.517-10.518 5.808 0 10.517 4.709 10.517 10.518 0 5.808-4.709 10.517-10.517 10.517-5.808 0-10.517-4.709-10.517-10.517z" fill="#fbfbf8" data-fill-palette-color="primary"></path><path d="M254.673 141.217c0-5.808 4.709-10.517 10.518-10.518 5.808 0 10.517 4.709 10.517 10.518 0 5.808-4.709 10.517-10.517 10.517-5.808 0-10.517-4.709-10.518-10.517z" fill="#fbfbf8" data-fill-palette-color="primary"></path></g><g id="text-1"></g></svg></g><g transform="matrix(1,0,0,1,53.1494936,295.17190000000005)"><svg viewBox="0 0 171.97061280000003 18.825403414910028" height="18.825403414910028" width="171.97061280000003"><g transform="matrix(1,0,0,1,0,0)"><svg width="171.97061280000003" viewBox="1.35 -35.85 466.72999999999996 51.1" height="18.825403414910028" data-palette-color="#fbfbf8"><path d="M18.95-9.95L18.85-14.7Q18.85-15.85 17.45-15.95L17.45-15.95 13.9-15.95Q13.5-15.95 13.5-16.2L13.5-16.2Q13.8-17.65 14.55-18.53 15.3-19.4 15.8-19.5L15.8-19.5Q17.2-19.7 20.4-19.7 23.6-19.7 24.4-19.68 25.2-19.65 25.4-19.5L25.4-19.5Q25.6-19.25 25.6-18.93 25.6-18.6 25.43-14.78 25.25-10.95 25.25-7.93 25.25-4.9 25.45-4.13 25.65-3.35 25.65-3.15L25.65-3.15Q25.65-2.35 24.25-1.43 22.85-0.5 20.03 0.2 17.2 0.9 13.8 0.9L13.8 0.9Q9.25 0.9 5.9-2.25L5.9-2.25Q3.3-4.75 2.33-7.7 1.35-10.65 1.35-16L1.35-16Q1.35-35.85 15.9-35.85L15.9-35.85Q18.35-35.85 20.3-35.33 22.25-34.8 23.73-33.27 25.2-31.75 25.2-29.35L25.2-29.35Q25.2-28.1 24.7-26.8L24.7-26.8Q23.8-24.15 20.7-24.15L20.7-24.15Q19-24.15 18.13-25.03 17.25-25.9 17.25-27.45L17.25-27.45Q17.25-28.05 17.9-28.2L17.9-28.2Q18.85-28.75 18.85-30.08 18.85-31.4 17.85-32.13 16.85-32.85 15.75-32.85L15.75-32.85Q13.35-32.85 11.7-31.13 10.05-29.4 9.3-26.6L9.3-26.6Q8.05-21.6 8.05-16.4L8.05-16.4Q8.05-7.9 12.2-5.1L12.2-5.1Q13.75-4 15.45-4L15.45-4Q18.6-4 18.8-5.15L18.8-5.15Q18.95-6.7 18.95-9.95L18.95-9.95ZM43.85-17.2L43.6-13.4 43.8-11.65Q43.8-10.7 42-10.7L42-10.7Q38.35-10.7 38.35-13.45L38.35-13.45Q38.35-14.1 38.7-15.25 39.05-16.4 39.05-17.25 39.05-18.1 38.55-18.73 38.05-19.35 37.1-19.35 36.15-19.35 35.47-18.68 34.8-18 34.65-17.3L34.65-17.3 34.45-16.6Q34.15-15.05 34.15-11.43 34.15-7.8 34.25-5.73 34.35-3.65 34.45-2.88 34.55-2.1 34.55-1.95L34.55-1.95Q34.55-0.7 33 0.08 31.45 0.85 29.9 0.85 28.35 0.85 28.35 0.2L28.35 0.2 28.6-1.35Q29.3-5.7 29.3-12.7 29.3-19.7 28.8-22.2L28.8-22.2Q28.8-22.8 29.85-22.8L29.85-22.8Q32.55-22.8 33.45-20.95L33.45-20.95Q33.5-20.75 33.62-20.75 33.75-20.75 34.3-21.2L34.3-21.2Q35.95-22.55 38.2-22.55L38.2-22.55Q39.6-22.55 41-22L41-22Q43.85-20.85 43.85-17.2L43.85-17.2ZM50.84-12.7L50.84-12.7 50.89-11.45Q50.89-11.15 51.3-11.15L51.3-11.15Q52.89-11.3 54.09-11.98 55.3-12.65 55.89-13.5L55.89-13.5Q57.09-15.35 57.2-16.7L57.2-16.7 57.24-17.3Q57.24-20 55.09-20L55.09-20Q53.49-20 52.49-18.6L52.49-18.6Q50.84-16.4 50.84-12.7ZM61.75-6.05L61.75-6.05Q61.75-4.15 60.97-2.73 60.2-1.3 59.22-0.63 58.24 0.05 56.95 0.45L56.95 0.45Q55.3 0.95 53.8 0.95L53.8 0.95Q49.59 0.95 47.59-2.2 45.59-5.35 45.59-10.23 45.59-15.1 48.07-18.9 50.55-22.7 55.49-22.7L55.49-22.7Q59.99-22.7 61.59-19.55L61.59-19.55Q62.25-18.35 62.25-17.28 62.25-16.2 62.14-15.58 62.05-14.95 61.45-13.7 60.84-12.45 59.84-11.45 58.84-10.45 56.7-9.55 54.55-8.65 51.64-8.35L51.64-8.35Q51.24-8.35 51.24-8L51.24-8Q51.24-7.55 51.57-6.68 51.89-5.8 52.3-5.2L52.3-5.2Q53.39-3.8 55.55-3.8L55.55-3.8Q57.7-3.8 59.2-5.2L59.2-5.2Q59.99-5.95 60.49-7.05L60.49-7.05Q60.7-7.45 61.02-7.45 61.34-7.45 61.55-6.9 61.75-6.35 61.75-6.05ZM80.49-15L80.49-15 80.39-8.6Q80.39-1.95 81.84-0.6L81.84-0.6Q82.04-0.4 82.04-0.15L82.04-0.15Q82.04 0.6 78.82 0.6 75.59 0.6 75.39-1.3L75.39-1.3Q75.34-1.75 75.34-3.15L75.34-3.15 75.54-11.15Q75.54-11.5 75.14-11.5L75.14-11.5Q72.74-11.5 70.64-10.15 68.54-8.8 68.54-6.7L68.54-6.7Q68.54-5.6 69.14-4.85 69.74-4.1 70.62-4.1 71.49-4.1 72.07-4.45 72.64-4.8 72.74-4.85L72.74-4.85Q73.59-4.75 73.59-3.08 73.59-1.4 72.04-0.38 70.49 0.65 68.79 0.65 67.09 0.65 65.87 0.05 64.64-0.55 64.09-1.3 63.54-2.05 63.19-3L63.19-3Q62.84-4.15 62.84-5L62.84-5Q62.84-8.5 65.04-10.6 67.24-12.7 70.69-13.6L70.69-13.6Q75.24-14.5 75.44-15.25L75.44-15.25Q75.59-15.8 75.59-17.1L75.59-17.1Q75.59-19.75 72.89-19.75L72.89-19.75Q71.74-19.75 70.84-19.03 69.94-18.3 69.94-17.2L69.94-17.2 70.24-16Q70.14-15.15 68.44-15L68.44-15 67.89-14.95Q66.39-14.95 65.52-15.7 64.64-16.45 64.64-17.7L64.64-17.7Q64.64-18.5 65.17-19.48 65.69-20.45 66.49-21.05 67.29-21.65 68.97-22.13 70.64-22.6 72.19-22.6 73.74-22.6 74.59-22.5 75.44-22.4 76.92-22.03 78.39-21.65 79.37-20.6 80.34-19.55 80.42-18.38 80.49-17.2 80.49-15ZM82.79-19.5L82.79-19.5 82.94-21.5Q82.99-21.95 83.64-21.95L83.64-21.95 85.39-21.95 85.19-25.95 85.19-26.15Q85.19-27.3 86.94-28.35 88.69-29.4 90.14-29.4L90.14-29.4Q90.59-29.4 90.59-29L90.59-29 90.59-28.95Q90.39-27.6 90.19-22L90.19-22Q92.39-22 92.99-22.1 93.59-22.2 93.64-22.2L93.64-22.2Q93.99-22.2 93.99-21.6 93.99-21 93.44-20.08 92.89-19.15 92.24-19.1L92.24-19.1 90.14-19.1Q90.09-17.4 90.09-13.38 90.09-9.35 90.17-6.75 90.24-4.15 90.34-2.83 90.44-1.5 90.57-0.7 90.69 0.1 90.77 0.45 90.84 0.8 90.84 0.9L90.84 0.9Q90.84 1.4 90.19 1.45L90.19 1.45Q88.24 1.45 86.32 0.9 84.39 0.35 84.39-1L84.39-1Q85.44-9.4 85.44-19.05L85.44-19.05Q84.09-19.05 83.39-18.95L83.39-18.95 83.34-18.95Q82.89-18.95 82.79-19.5ZM120.09-5.75L120.09-5.75Q120.09-2.9 117.81-1.03 115.54 0.85 112.39 0.85L112.39 0.85Q107.79 0.85 105.64-1.93 103.49-4.7 103.49-9.45L103.49-9.45Q103.49-14.5 105.74-18.4L105.74-18.4Q106.84-20.4 108.89-21.55 110.94-22.7 113.69-22.7L113.69-22.7Q117.84-22.7 119.54-19.9L119.54-19.9Q120.24-18.75 120.24-17.2L120.24-17.2Q120.24-14.8 118.24-13.6L118.24-13.6Q117.44-13.15 116.76-13.15 116.09-13.15 115.66-13.23 115.24-13.3 114.54-13.9 113.84-14.5 113.84-15.55L113.84-15.55Q113.89-16.1 114.69-16.45L114.69-16.45Q115.44-16.9 115.44-18.05L115.44-18.05Q115.44-20 113.04-20L113.04-20Q112.44-20 111.61-19.48 110.79-18.95 110.24-18.13 109.69-17.3 109.21-15.53 108.74-13.75 108.74-12.13 108.74-10.5 108.86-9.68 108.99-8.85 109.41-7.43 109.84-6 111.01-5.1 112.19-4.2 113.94-4.2L113.94-4.2Q116.04-4.2 117.64-5.95L117.64-5.95Q118.29-6.65 118.69-7.65L118.69-7.65Q118.89-8.05 119.19-8.05L119.19-8.05Q119.64-8.05 119.86-7.23 120.09-6.4 120.09-5.75ZM127.63-18.85L127.63-18.85Q126.33-18.8 125.76-18.78 125.18-18.75 125.18-19.05 125.18-19.35 125.48-19.65L125.48-19.65Q128.68-22.6 136.28-22.6L136.28-22.6Q138.88-22.6 140.38-22.15L140.38-22.15 140.88-22Q141.48-21.75 141.48-21.45L141.48-21.45Q141.48-21.2 141.13-21.05L141.13-21.05Q139.78-20.65 138.53-19.78 137.28-18.9 137.28-18.55L137.28-18.55 137.58-18.2Q139.18-17.3 140.06-15.35 140.93-13.4 141.03-11.9L141.03-11.9 141.13-10.35Q141.13-5.4 138.38-2.2 135.63 1 130.88 1L130.88 1Q128.48 1 126.73 0.15 124.98-0.7 124.16-1.78 123.33-2.85 122.83-4.2L122.83-4.2Q122.23-6.05 122.23-8.03 122.23-10 122.91-12 123.58-14 124.46-14.95 125.33-15.9 126.43-16.5L126.43-16.5Q127.83-17.25 128.68-17.25 129.53-17.25 129.53-16.9L129.53-16.9 129.23-16.4Q128.13-15.1 127.66-13 127.18-10.9 127.18-9.28 127.18-7.65 127.58-6.05 127.98-4.45 128.48-3.68 128.98-2.9 129.63-2.5L129.63-2.5Q130.58-1.9 131.63-1.9 132.68-1.9 133.68-2.73 134.68-3.55 135.13-4.9L135.13-4.9Q136.03-7.4 136.03-10.05L136.03-10.05Q136.03-14.25 133.91-16.55 131.78-18.85 127.63-18.85ZM153.73-22.45L153.73-22.45Q154.63-22.45 155.36-22.23 156.08-22 156.13-22L156.13-22 156.43-22.25 156.23-27.7Q156.13-29.1 155.63-30.1 155.13-31.1 154.73-31.4L154.73-31.4 154.28-31.65Q153.98-31.85 153.98-32.1L153.98-32.1Q153.98-32.85 156.31-33.85 158.63-34.85 159.93-34.85 161.23-34.85 161.33-34.3L161.33-34.3Q161.58-32.6 161.58-27.83 161.58-23.05 161.36-18.45 161.13-13.85 161.13-8.03 161.13-2.2 161.88-0.7L161.88-0.7Q162.08-0.35 162.08-0.05L162.08-0.05Q162.08 0.7 159.93 0.7L159.93 0.7Q155.83 0.7 155.83-1.25L155.83-1.25Q155.73-2.05 155.73-3.73 155.73-5.4 156.06-9.98 156.38-14.55 156.38-17.03 156.38-19.5 153.91-19.5 151.43-19.5 150.13-16.6 148.83-13.7 148.83-10.8L148.83-10.8Q148.83-4.65 151.93-4.65L151.93-4.65Q152.38-4.65 152.81-4.83 153.23-5 153.33-5L153.33-5Q153.73-5 153.96-4.5 154.18-4 154.18-3.5L154.18-3.5Q154.18-1.8 152.83-0.63 151.48 0.55 149.53 0.55L149.53 0.55Q146.53 0.55 145.01-2.08 143.48-4.7 143.48-8.6L143.48-8.6Q143.48-13.55 145.83-17.8L145.83-17.8Q147.03-19.9 149.08-21.18 151.13-22.45 153.73-22.45ZM169.08-12.7L169.08-12.7 169.13-11.45Q169.13-11.15 169.53-11.15L169.53-11.15Q171.13-11.3 172.33-11.98 173.53-12.65 174.13-13.5L174.13-13.5Q175.33-15.35 175.43-16.7L175.43-16.7 175.48-17.3Q175.48-20 173.33-20L173.33-20Q171.73-20 170.73-18.6L170.73-18.6Q169.08-16.4 169.08-12.7ZM179.98-6.05L179.98-6.05Q179.98-4.15 179.2-2.73 178.43-1.3 177.45-0.63 176.48 0.05 175.18 0.45L175.18 0.45Q173.53 0.95 172.03 0.95L172.03 0.95Q167.83 0.95 165.83-2.2 163.83-5.35 163.83-10.23 163.83-15.1 166.3-18.9 168.78-22.7 173.73-22.7L173.73-22.7Q178.23-22.7 179.83-19.55L179.83-19.55Q180.48-18.35 180.48-17.28 180.48-16.2 180.38-15.58 180.28-14.95 179.68-13.7 179.08-12.45 178.08-11.45 177.08-10.45 174.93-9.55 172.78-8.65 169.88-8.35L169.88-8.35Q169.48-8.35 169.48-8L169.48-8Q169.48-7.55 169.8-6.68 170.13-5.8 170.53-5.2L170.53-5.2Q171.63-3.8 173.78-3.8L173.78-3.8Q175.93-3.8 177.43-5.2L177.43-5.2Q178.23-5.95 178.73-7.05L178.73-7.05Q178.93-7.45 179.25-7.45 179.58-7.45 179.78-6.9 179.98-6.35 179.98-6.05ZM206.92-6.85L206.92-6.85Q206.92-4.7 206.1-3.1 205.27-1.5 204.22-0.75 203.17 0 201.72 0.45L201.72 0.45Q199.82 1.05 198.27 1.05L198.27 1.05Q195.02 1.05 192.87-0.23 190.72-1.5 190.72-4.3L190.72-4.3Q190.72-5.95 191.62-7L191.62-7Q193.02-8.55 194.97-8.55L194.97-8.55Q195.57-8.55 195.57-8L195.57-8Q195.57-7.95 195.35-7.23 195.12-6.5 195.12-5.4 195.12-4.3 196-3.45 196.87-2.6 198.12-2.6 199.37-2.6 200.12-3.03 200.87-3.45 201.17-4.1L201.17-4.1Q201.62-5 201.62-5.8L201.62-5.8Q201.62-7.25 200.17-8.3 198.72-9.35 196.97-9.95 195.22-10.55 193.77-11.95 192.32-13.35 192.32-15.45L192.32-15.45Q192.32-19.05 194.6-20.85 196.87-22.65 200.77-22.65L200.77-22.65Q202.47-22.65 204.35-22.18 206.22-21.7 206.22-20.58 206.22-19.45 205.85-18.5 205.47-17.55 204.92-17.55L204.92-17.55Q204.62-17.55 204.52-17.78 204.42-18 204.17-18.3 203.92-18.6 202.97-19.07 202.02-19.55 201.35-19.55 200.67-19.55 200.45-19.53 200.22-19.5 199.67-19.38 199.12-19.25 198.67-19L198.67-19Q197.52-18.35 197.52-17.1L197.52-17.1Q197.52-16.3 197.87-15.93 198.22-15.55 198.42-15.35 198.62-15.15 199.12-14.88 199.62-14.6 199.82-14.5 200.02-14.4 200.72-14.08 201.42-13.75 201.62-13.65L201.62-13.65Q206.92-11.15 206.92-6.85ZM208.92 0.35L208.92 0.35Q209.82-5.05 209.82-12.6 209.82-20.15 209.37-22.4L209.37-22.4Q209.37-23.05 210.87-23.05L210.87-23.05Q213.17-23.05 213.92-21.3L213.92-21.3Q213.97-21.15 214.17-21.15 214.37-21.15 214.47-21.25L214.47-21.25Q216.02-22.85 219.27-22.85 222.52-22.85 224.42-21.2 226.32-19.55 226.32-16.4L226.32-16.4Q226.32-14.5 226-11 225.67-7.5 225.67-5.8L225.67-5.8Q225.67-1.75 227.02 0.05L227.02 0.05Q227.22 0.3 227.22 0.55L227.22 0.55Q227.22 1.2 225.82 1.2L225.82 1.2Q219.62 1.2 219.62-4.3L219.62-4.3Q219.62-6.4 220.57-10.15 221.52-13.9 221.52-15.85L221.52-15.85Q221.52-19.85 218.22-19.85L218.22-19.85Q216.62-19.85 215.8-18.9 214.97-17.95 214.87-16.73 214.77-15.5 214.77-12.1L214.77-12.1Q214.77-6.9 215.12-3.05L215.12-3.05 215.22-1.95Q215.22-0.55 213.4 0.23 211.57 1 210.25 1 208.92 1 208.92 0.35ZM234.02-26.75L234.02-26.75 232.82-26.8Q231.47-26.8 231.07-26.15L231.07-26.15Q230.97-26 230.82-26L230.82-26Q230.17-26 230.17-28.23 230.17-30.45 230.84-31.05 231.52-31.65 233.19-31.65 234.87-31.65 235.47-31.08 236.07-30.5 236.07-29.15 236.07-27.8 235.62-27.28 235.17-26.75 234.02-26.75ZM230.02-1.5L230.02-1.5 230.57-13.15Q230.57-17.3 229.62-18.8L229.62-18.8Q229.32-19.3 228.92-19.55L228.92-19.55Q228.62-19.65 228.62-19.95L228.62-19.95Q228.62-20.85 231.17-21.7 233.72-22.55 234.89-22.55 236.07-22.55 236.12-21.95L236.12-21.95Q236.12-20.95 235.84-16.28 235.57-11.6 235.57-6.45 235.57-1.3 236.17-0.05L236.17-0.05Q236.32 0.2 236.32 0.45L236.32 0.45Q236.32 1.1 234.42 1.1 232.52 1.1 230.52 0.1L230.52 0.1Q230.02-0.15 230.02-1.5ZM239.87-7.65L239.87-7.65Q239.97-12.7 239.97-15.95 239.97-19.2 239.52-22.15L239.52-22.15Q239.52-22.65 240.52-22.65 241.52-22.65 242.24-22.4 242.97-22.15 243.27-21.85L243.27-21.85Q244.06-21.05 244.19-21.05 244.31-21.05 244.97-21.5L244.97-21.5Q246.92-22.75 249.29-22.75 251.67-22.75 253.44-21.55 255.22-20.35 255.97-18.4L255.97-18.4Q257.31-15.05 257.31-11.3L257.31-11.3Q257.31-7.6 255.97-3.9L255.97-3.9Q255.22-1.9 253.77-0.63 252.31 0.65 250.37 0.65L250.37 0.65Q246.52 0.65 246.52-3.8L246.52-3.8Q246.52-5 247.02-5L247.02-5Q247.12-5 247.59-4.78 248.06-4.55 248.52-4.55L248.52-4.55Q252.06-4.55 252.06-12.08 252.06-19.6 248.27-19.6L248.27-19.6Q247.22-19.6 246.49-19.13 245.77-18.65 245.56-18.2L245.56-18.2 245.37-17.7Q244.67-13.2 244.67-0.35L244.67-0.35Q244.67 5.45 244.89 7.98 245.12 10.5 245.12 11 245.12 11.5 244.81 11.9L244.81 11.9Q243.81 13.2 242.12 14.23 240.42 15.25 239.12 15.25L239.12 15.25Q238.62 15.25 238.62 14.6L238.62 14.6Q239.42 9.55 239.87-7.65ZM259.76-7.65L259.76-7.65Q259.86-12.7 259.86-15.95 259.86-19.2 259.41-22.15L259.41-22.15Q259.41-22.65 260.41-22.65 261.41-22.65 262.14-22.4 262.86-22.15 263.16-21.85L263.16-21.85Q263.96-21.05 264.09-21.05 264.21-21.05 264.86-21.5L264.86-21.5Q266.81-22.75 269.19-22.75 271.56-22.75 273.34-21.55 275.11-20.35 275.86-18.4L275.86-18.4Q277.21-15.05 277.21-11.3L277.21-11.3Q277.21-7.6 275.86-3.9L275.86-3.9Q275.11-1.9 273.66-0.63 272.21 0.65 270.26 0.65L270.26 0.65Q266.41 0.65 266.41-3.8L266.41-3.8Q266.41-5 266.91-5L266.91-5Q267.01-5 267.49-4.78 267.96-4.55 268.41-4.55L268.41-4.55Q271.96-4.55 271.96-12.08 271.96-19.6 268.16-19.6L268.16-19.6Q267.11-19.6 266.39-19.13 265.66-18.65 265.46-18.2L265.46-18.2 265.26-17.7Q264.56-13.2 264.56-0.35L264.56-0.35Q264.56 5.45 264.79 7.98 265.01 10.5 265.01 11 265.01 11.5 264.71 11.9L264.71 11.9Q263.71 13.2 262.01 14.23 260.31 15.25 259.01 15.25L259.01 15.25Q258.51 15.25 258.51 14.6L258.51 14.6Q259.31 9.55 259.76-7.65ZM284.41-12.7L284.41-12.7 284.46-11.45Q284.46-11.15 284.86-11.15L284.86-11.15Q286.46-11.3 287.66-11.98 288.86-12.65 289.46-13.5L289.46-13.5Q290.66-15.35 290.76-16.7L290.76-16.7 290.81-17.3Q290.81-20 288.66-20L288.66-20Q287.06-20 286.06-18.6L286.06-18.6Q284.41-16.4 284.41-12.7ZM295.31-6.05L295.31-6.05Q295.31-4.15 294.53-2.73 293.76-1.3 292.78-0.63 291.81 0.05 290.51 0.45L290.51 0.45Q288.86 0.95 287.36 0.95L287.36 0.95Q283.16 0.95 281.16-2.2 279.16-5.35 279.16-10.23 279.16-15.1 281.63-18.9 284.11-22.7 289.06-22.7L289.06-22.7Q293.56-22.7 295.16-19.55L295.16-19.55Q295.81-18.35 295.81-17.28 295.81-16.2 295.71-15.58 295.61-14.95 295.01-13.7 294.41-12.45 293.41-11.45 292.41-10.45 290.26-9.55 288.11-8.65 285.21-8.35L285.21-8.35Q284.81-8.35 284.81-8L284.81-8Q284.81-7.55 285.13-6.68 285.46-5.8 285.86-5.2L285.86-5.2Q286.96-3.8 289.11-3.8L289.11-3.8Q291.26-3.8 292.76-5.2L292.76-5.2Q293.56-5.95 294.06-7.05L294.06-7.05Q294.26-7.45 294.58-7.45 294.91-7.45 295.11-6.9 295.31-6.35 295.31-6.05ZM297.31-19.5L297.31-19.5 297.46-21.5Q297.51-21.95 298.16-21.95L298.16-21.95 299.91-21.95 299.71-25.95 299.71-26.15Q299.71-27.3 301.46-28.35 303.21-29.4 304.66-29.4L304.66-29.4Q305.11-29.4 305.11-29L305.11-29 305.11-28.95Q304.91-27.6 304.71-22L304.71-22Q306.91-22 307.51-22.1 308.11-22.2 308.16-22.2L308.16-22.2Q308.51-22.2 308.51-21.6 308.51-21 307.96-20.08 307.41-19.15 306.76-19.1L306.76-19.1 304.66-19.1Q304.61-17.4 304.61-13.38 304.61-9.35 304.68-6.75 304.76-4.15 304.86-2.83 304.96-1.5 305.08-0.7 305.21 0.1 305.28 0.45 305.36 0.8 305.36 0.9L305.36 0.9Q305.36 1.4 304.71 1.45L304.71 1.45Q302.76 1.45 300.83 0.9 298.91 0.35 298.91-1L298.91-1Q299.96-9.4 299.96-19.05L299.96-19.05Q298.61-19.05 297.91-18.95L297.91-18.95 297.86-18.95Q297.41-18.95 297.31-19.5ZM324.45-6.85L324.45-6.85Q324.45-4.7 323.63-3.1 322.8-1.5 321.75-0.75 320.7 0 319.25 0.45L319.25 0.45Q317.35 1.05 315.8 1.05L315.8 1.05Q312.55 1.05 310.4-0.23 308.25-1.5 308.25-4.3L308.25-4.3Q308.25-5.95 309.15-7L309.15-7Q310.55-8.55 312.5-8.55L312.5-8.55Q313.1-8.55 313.1-8L313.1-8Q313.1-7.95 312.88-7.23 312.65-6.5 312.65-5.4 312.65-4.3 313.53-3.45 314.4-2.6 315.65-2.6 316.9-2.6 317.65-3.03 318.4-3.45 318.7-4.1L318.7-4.1Q319.15-5 319.15-5.8L319.15-5.8Q319.15-7.25 317.7-8.3 316.25-9.35 314.5-9.95 312.75-10.55 311.3-11.95 309.85-13.35 309.85-15.45L309.85-15.45Q309.85-19.05 312.13-20.85 314.4-22.65 318.3-22.65L318.3-22.65Q320-22.65 321.88-22.18 323.75-21.7 323.75-20.58 323.75-19.45 323.38-18.5 323-17.55 322.45-17.55L322.45-17.55Q322.15-17.55 322.05-17.78 321.95-18 321.7-18.3 321.45-18.6 320.5-19.07 319.55-19.55 318.88-19.55 318.2-19.55 317.98-19.53 317.75-19.5 317.2-19.38 316.65-19.25 316.2-19L316.2-19Q315.05-18.35 315.05-17.1L315.05-17.1Q315.05-16.3 315.4-15.93 315.75-15.55 315.95-15.35 316.15-15.15 316.65-14.88 317.15-14.6 317.35-14.5 317.55-14.4 318.25-14.08 318.95-13.75 319.15-13.65L319.15-13.65Q324.45-11.15 324.45-6.85ZM334.7-19.5L334.7-19.5 334.85-21.5Q334.9-21.95 335.55-21.95L335.55-21.95 337.3-21.95 337.1-25.95 337.1-26.15Q337.1-27.3 338.85-28.35 340.6-29.4 342.05-29.4L342.05-29.4Q342.5-29.4 342.5-29L342.5-29 342.5-28.95Q342.3-27.6 342.1-22L342.1-22Q344.3-22 344.9-22.1 345.5-22.2 345.55-22.2L345.55-22.2Q345.9-22.2 345.9-21.6 345.9-21 345.35-20.08 344.8-19.15 344.15-19.1L344.15-19.1 342.05-19.1Q342-17.4 342-13.38 342-9.35 342.07-6.75 342.15-4.15 342.25-2.83 342.35-1.5 342.47-0.7 342.6 0.1 342.67 0.45 342.75 0.8 342.75 0.9L342.75 0.9Q342.75 1.4 342.1 1.45L342.1 1.45Q340.15 1.45 338.22 0.9 336.3 0.35 336.3-1L336.3-1Q337.35-9.4 337.35-19.05L337.35-19.05Q336-19.05 335.3-18.95L335.3-18.95 335.25-18.95Q334.8-18.95 334.7-19.5ZM351.55-18.85L351.55-18.85Q350.25-18.8 349.67-18.78 349.1-18.75 349.1-19.05 349.1-19.35 349.4-19.65L349.4-19.65Q352.6-22.6 360.2-22.6L360.2-22.6Q362.8-22.6 364.3-22.15L364.3-22.15 364.8-22Q365.4-21.75 365.4-21.45L365.4-21.45Q365.4-21.2 365.05-21.05L365.05-21.05Q363.7-20.65 362.45-19.78 361.2-18.9 361.2-18.55L361.2-18.55 361.5-18.2Q363.1-17.3 363.97-15.35 364.85-13.4 364.95-11.9L364.95-11.9 365.05-10.35Q365.05-5.4 362.3-2.2 359.55 1 354.8 1L354.8 1Q352.4 1 350.65 0.15 348.9-0.7 348.07-1.78 347.25-2.85 346.75-4.2L346.75-4.2Q346.15-6.05 346.15-8.03 346.15-10 346.82-12 347.5-14 348.37-14.95 349.25-15.9 350.35-16.5L350.35-16.5Q351.75-17.25 352.6-17.25 353.45-17.25 353.45-16.9L353.45-16.9 353.15-16.4Q352.05-15.1 351.57-13 351.1-10.9 351.1-9.28 351.1-7.65 351.5-6.05 351.9-4.45 352.4-3.68 352.9-2.9 353.55-2.5L353.55-2.5Q354.5-1.9 355.55-1.9 356.6-1.9 357.6-2.73 358.6-3.55 359.05-4.9L359.05-4.9Q359.95-7.4 359.95-10.05L359.95-10.05Q359.95-14.25 357.82-16.55 355.7-18.85 351.55-18.85ZM391.84-6.85L391.84-6.85Q391.84-4.7 391.02-3.1 390.19-1.5 389.14-0.75 388.09 0 386.64 0.45L386.64 0.45Q384.74 1.05 383.19 1.05L383.19 1.05Q379.94 1.05 377.79-0.23 375.64-1.5 375.64-4.3L375.64-4.3Q375.64-5.95 376.54-7L376.54-7Q377.94-8.55 379.89-8.55L379.89-8.55Q380.49-8.55 380.49-8L380.49-8Q380.49-7.95 380.27-7.23 380.04-6.5 380.04-5.4 380.04-4.3 380.92-3.45 381.79-2.6 383.04-2.6 384.29-2.6 385.04-3.03 385.79-3.45 386.09-4.1L386.09-4.1Q386.54-5 386.54-5.8L386.54-5.8Q386.54-7.25 385.09-8.3 383.64-9.35 381.89-9.95 380.14-10.55 378.69-11.95 377.24-13.35 377.24-15.45L377.24-15.45Q377.24-19.05 379.52-20.85 381.79-22.65 385.69-22.65L385.69-22.65Q387.39-22.65 389.27-22.18 391.14-21.7 391.14-20.58 391.14-19.45 390.77-18.5 390.39-17.55 389.84-17.55L389.84-17.55Q389.54-17.55 389.44-17.78 389.34-18 389.09-18.3 388.84-18.6 387.89-19.07 386.94-19.55 386.27-19.55 385.59-19.55 385.37-19.53 385.14-19.5 384.59-19.38 384.04-19.25 383.59-19L383.59-19Q382.44-18.35 382.44-17.1L382.44-17.1Q382.44-16.3 382.79-15.93 383.14-15.55 383.34-15.35 383.54-15.15 384.04-14.88 384.54-14.6 384.74-14.5 384.94-14.4 385.64-14.08 386.34-13.75 386.54-13.65L386.54-13.65Q391.84-11.15 391.84-6.85ZM400.29-26.85L400.29-26.85 400.24-22Q400.24-21.7 400.44-21.7 400.64-21.7 400.84-21.85L400.84-21.85Q402.09-22.7 404.79-22.7L404.79-22.7Q409.34-22.7 411.09-19.6L411.09-19.6Q411.74-18.45 411.74-16.55 411.74-14.65 411.51-11.3 411.29-7.95 411.29-6.55L411.29-6.55Q411.29-1.65 412.69-0.05L412.69-0.05Q412.94 0.2 412.94 0.45L412.94 0.45Q412.94 0.95 410.79 0.95L410.79 0.95Q404.99 0.95 404.99-4.45L404.99-4.45Q404.99-6.55 405.99-10.35 406.99-14.15 406.99-15.95 406.99-17.75 406.14-18.73 405.29-19.7 403.79-19.7 402.29-19.7 401.41-19.05 400.54-18.4 400.34-17.7L400.34-17.7 400.19-17.05Q400.14-16.1 400.14-11 400.14-5.9 400.39-4.38 400.64-2.85 400.64-2.65L400.64-2.65Q400.64-1.2 398.69-0.08 396.74 1.05 394.84 1.05L394.84 1.05Q394.14 1.05 394.14 0.25L394.14 0.25 394.24-0.7Q395.34-9.1 395.34-18.9L395.34-18.9Q395.34-22.7 395.04-26.6L395.04-26.6 394.99-27.7Q394.89-29.1 394.41-30.1 393.94-31.1 393.54-31.4L393.54-31.4 393.09-31.65Q392.74-31.85 392.74-32.1L392.74-32.1Q392.74-32.8 395.09-33.83 397.44-34.85 398.71-34.85 399.99-34.85 400.09-34.3L400.09-34.3Q400.29-31.75 400.29-26.85ZM431.14-15L431.14-15 431.04-8.6Q431.04-1.95 432.49-0.6L432.49-0.6Q432.69-0.4 432.69-0.15L432.69-0.15Q432.69 0.6 429.46 0.6 426.24 0.6 426.04-1.3L426.04-1.3Q425.99-1.75 425.99-3.15L425.99-3.15 426.19-11.15Q426.19-11.5 425.79-11.5L425.79-11.5Q423.39-11.5 421.29-10.15 419.19-8.8 419.19-6.7L419.19-6.7Q419.19-5.6 419.79-4.85 420.39-4.1 421.26-4.1 422.14-4.1 422.71-4.45 423.29-4.8 423.39-4.85L423.39-4.85Q424.24-4.75 424.24-3.08 424.24-1.4 422.69-0.38 421.14 0.65 419.44 0.65 417.74 0.65 416.51 0.05 415.29-0.55 414.74-1.3 414.19-2.05 413.84-3L413.84-3Q413.49-4.15 413.49-5L413.49-5Q413.49-8.5 415.69-10.6 417.89-12.7 421.34-13.6L421.34-13.6Q425.89-14.5 426.09-15.25L426.09-15.25Q426.24-15.8 426.24-17.1L426.24-17.1Q426.24-19.75 423.54-19.75L423.54-19.75Q422.39-19.75 421.49-19.03 420.59-18.3 420.59-17.2L420.59-17.2 420.89-16Q420.79-15.15 419.09-15L419.09-15 418.54-14.95Q417.04-14.95 416.16-15.7 415.29-16.45 415.29-17.7L415.29-17.7Q415.29-18.5 415.81-19.48 416.34-20.45 417.14-21.05 417.94-21.65 419.61-22.13 421.29-22.6 422.84-22.6 424.39-22.6 425.24-22.5 426.09-22.4 427.56-22.03 429.04-21.65 430.01-20.6 430.99-19.55 431.06-18.38 431.14-17.2 431.14-15ZM449.68-17.2L449.43-13.4 449.63-11.65Q449.63-10.7 447.83-10.7L447.83-10.7Q444.18-10.7 444.18-13.45L444.18-13.45Q444.18-14.1 444.53-15.25 444.88-16.4 444.88-17.25 444.88-18.1 444.38-18.73 443.88-19.35 442.93-19.35 441.98-19.35 441.31-18.68 440.63-18 440.48-17.3L440.48-17.3 440.28-16.6Q439.98-15.05 439.98-11.43 439.98-7.8 440.08-5.73 440.18-3.65 440.28-2.88 440.38-2.1 440.38-1.95L440.38-1.95Q440.38-0.7 438.83 0.08 437.28 0.85 435.73 0.85 434.18 0.85 434.18 0.2L434.18 0.2 434.43-1.35Q435.13-5.7 435.13-12.7 435.13-19.7 434.63-22.2L434.63-22.2Q434.63-22.8 435.68-22.8L435.68-22.8Q438.38-22.8 439.28-20.95L439.28-20.95Q439.33-20.75 439.46-20.75 439.58-20.75 440.13-21.2L440.13-21.2Q441.78-22.55 444.03-22.55L444.03-22.55Q445.43-22.55 446.83-22L446.83-22Q449.68-20.85 449.68-17.2L449.68-17.2ZM456.68-12.7L456.68-12.7 456.73-11.45Q456.73-11.15 457.13-11.15L457.13-11.15Q458.73-11.3 459.93-11.98 461.13-12.65 461.73-13.5L461.73-13.5Q462.93-15.35 463.03-16.7L463.03-16.7 463.08-17.3Q463.08-20 460.93-20L460.93-20Q459.33-20 458.33-18.6L458.33-18.6Q456.68-16.4 456.68-12.7ZM467.58-6.05L467.58-6.05Q467.58-4.15 466.81-2.73 466.03-1.3 465.06-0.63 464.08 0.05 462.78 0.45L462.78 0.45Q461.13 0.95 459.63 0.95L459.63 0.95Q455.43 0.95 453.43-2.2 451.43-5.35 451.43-10.23 451.43-15.1 453.91-18.9 456.38-22.7 461.33-22.7L461.33-22.7Q465.83-22.7 467.43-19.55L467.43-19.55Q468.08-18.35 468.08-17.28 468.08-16.2 467.98-15.58 467.88-14.95 467.28-13.7 466.68-12.45 465.68-11.45 464.68-10.45 462.53-9.55 460.38-8.65 457.48-8.35L457.48-8.35Q457.08-8.35 457.08-8L457.08-8Q457.08-7.55 457.41-6.68 457.73-5.8 458.13-5.2L458.13-5.2Q459.23-3.8 461.38-3.8L461.38-3.8Q463.53-3.8 465.03-5.2L465.03-5.2Q465.83-5.95 466.33-7.05L466.33-7.05Q466.53-7.45 466.86-7.45 467.18-7.45 467.38-6.9 467.58-6.35 467.58-6.05Z" opacity="1" transform="matrix(1,0,0,1,0,0)" fill="#fbfbf8" class="slogan-text-1" data-fill-palette-color="secondary" id="text-1"></path></svg></g></svg></g></svg></g></svg></g></svg></g><defs></defs></svg><rect width="248.14062780992728" height="280" fill="none" stroke="none" visibility="hidden"></rect></g></svg></g></svg>